<?xml version="1.0" encoding="UTF-8" standalone="no"?>
<svg width="20px" height="20px" viewBox="0 0 20 20" version="1.1" xmlns="http://www.w3.org/2000/svg" xmlns:xlink="http://www.w3.org/1999/xlink">
    <!-- Generator: Sketch 47 (45396) - http://www.bohemiancoding.com/sketch -->
    <title>Artboard 2</title>
    <desc>Created with Sketch.</desc>
    <defs></defs>
    <g id="Page-1" stroke="none" stroke-width="1" fill="none" fill-rule="evenodd">
        <g id="Artboard-2" fill-rule="nonzero" fill="#FFFFFF">
            <g id="Group" transform="translate(2.000000, 2.000000)">
                <path d="M9,14 C5.13400675,14 2,10.8659932 2,7 C2,3.13400675 5.13400675,0 9,0 C12.8659932,0 16,3.13400675 16,7 C16,10.8659932 12.8659932,14 9,14 Z M9,12 C11.7614237,12 14,9.76142375 14,7 C14,4.23857625 11.7614237,2 9,2 C6.23857625,2 4,4.23857625 4,7 C4,9.76142375 6.23857625,12 9,12 Z" id="Oval-2"></path>
                <rect id="Rectangle" transform="translate(3.000000, 13.000000) rotate(-47.000000) translate(-3.000000, -13.000000) " x="4.4408921e-16" y="12" width="6" height="2"></rect>
            </g>
        </g>
    </g>
</svg>