<svg width="120" height="68" viewBox="0 0 120 68" version="1.1" xmlns="http://www.w3.org/2000/svg" xmlns:xlink="http://www.w3.org/1999/xlink">
<title>Group</title>
<desc>Created using Figma</desc>
<g id="Canvas" transform="translate(60 157)">
<g id="Group">
<g id="Ryan Kingston&#226;&#128;&#153;s">
<use xlink:href="#path0_fill" transform="translate(-37 -156.912)"/>
<use xlink:href="#path1_fill" transform="translate(-37 -156.912)"/>
<use xlink:href="#path2_fill" transform="translate(-37 -156.912)"/>
<use xlink:href="#path3_fill" transform="translate(-37 -156.912)"/>
<use xlink:href="#path4_fill" transform="translate(-37 -156.912)"/>
<use xlink:href="#path5_fill" transform="translate(-37 -156.912)"/>
<use xlink:href="#path6_fill" transform="translate(-37 -156.912)"/>
<use xlink:href="#path7_fill" transform="translate(-37 -156.912)"/>
<use xlink:href="#path8_fill" transform="translate(-37 -156.912)"/>
<use xlink:href="#path9_fill" transform="translate(-37 -156.912)"/>
<use xlink:href="#path10_fill" transform="translate(-37 -156.912)"/>
<use xlink:href="#path11_fill" transform="translate(-37 -156.912)"/>
<use xlink:href="#path12_fill" transform="translate(-37 -156.912)"/>
<use xlink:href="#path13_fill" transform="translate(-37 -156.912)"/>
</g>
<g id="FLEET BUILDER">
<use xlink:href="#path14_fill" transform="translate(-47 -101.36)"/>
<use xlink:href="#path15_fill" transform="translate(-47 -101.36)"/>
<use xlink:href="#path16_fill" transform="translate(-47 -101.36)"/>
<use xlink:href="#path17_fill" transform="translate(-47 -101.36)"/>
<use xlink:href="#path18_fill" transform="translate(-47 -101.36)"/>
<use xlink:href="#path19_fill" transform="translate(-47 -101.36)"/>
<use xlink:href="#path20_fill" transform="translate(-47 -101.36)"/>
<use xlink:href="#path21_fill" transform="translate(-47 -101.36)"/>
<use xlink:href="#path22_fill" transform="translate(-47 -101.36)"/>
<use xlink:href="#path23_fill" transform="translate(-47 -101.36)"/>
<use xlink:href="#path24_fill" transform="translate(-47 -101.36)"/>
<use xlink:href="#path25_fill" transform="translate(-47 -101.36)"/>
</g>
<g id="ARMADA">
<use xlink:href="#path26_fill" transform="translate(-58 -135.72)"/>
<use xlink:href="#path27_fill" transform="translate(-58 -135.72)"/>
<use xlink:href="#path28_fill" transform="translate(-58 -135.72)"/>
<use xlink:href="#path29_fill" transform="translate(-58 -135.72)"/>
<use xlink:href="#path30_fill" transform="translate(-58 -135.72)"/>
<use xlink:href="#path31_fill" transform="translate(-58 -135.72)"/>
</g>
<g id="Line (Stroke)">
<use xlink:href="#path32_fill" transform="matrix(1 -8.74228e-08 8.74228e-08 1 -60 -108)"/>
</g>
<g id="Line (Stroke)">
<use xlink:href="#path32_fill" transform="matrix(1 -8.74228e-08 8.74228e-08 1 -60 -142)"/>
</g>
</g>
</g>
<defs>
<path id="path0_fill" d="M 0 0.21C 0.308 0.135334 0.644 0.0839999 1.008 0.0560002C 1.38133 0.0186671 1.722 0 2.03 0C 2.394 0 2.73933 0.0466666 3.066 0.14C 3.39267 0.224 3.67733 0.373333 3.92 0.588C 4.16267 0.793333 4.354 1.06867 4.494 1.414C 4.64333 1.75 4.718 2.17467 4.718 2.688C 4.718 3.46267 4.55467 4.08333 4.228 4.55C 3.91067 5.01667 3.486 5.32933 2.954 5.488L 3.486 6.006L 5.418 9.912L 4.2 9.912L 2.1 5.642L 1.05 5.432L 1.05 9.912L 0 9.912L 0 0.21ZM 1.05 4.732L 1.89 4.732C 2.422 4.732 2.842 4.56867 3.15 4.242C 3.458 3.91533 3.612 3.416 3.612 2.744C 3.612 2.23067 3.48133 1.806 3.22 1.47C 2.968 1.134 2.59 0.966 2.086 0.966C 1.89933 0.966 1.70333 0.975334 1.498 0.994C 1.302 1.00333 1.15267 1.022 1.05 1.05L 1.05 4.732Z"/>
<path id="path1_fill" d="M 8.03709 7.434L 8.33109 8.792L 8.40109 8.792L 8.61109 7.434L 9.67509 2.912L 10.6971 2.912L 9.03109 9.198C 8.90043 9.702 8.76976 10.1733 8.63909 10.612C 8.50843 11.0507 8.36376 11.4287 8.20509 11.746C 8.05576 12.0727 7.88309 12.3247 7.68709 12.502C 7.50043 12.6887 7.27643 12.782 7.01509 12.782C 6.75376 12.782 6.52509 12.74 6.32909 12.656L 6.49709 11.704C 6.62776 11.7507 6.75843 11.76 6.88909 11.732C 7.01976 11.704 7.14109 11.6247 7.25309 11.494C 7.37443 11.3633 7.48176 11.1673 7.57509 10.906C 7.67776 10.654 7.76643 10.3227 7.84109 9.912L 5.57309 2.912L 6.72109 2.912L 8.03709 7.434Z"/>
<path id="path2_fill" d="M 11.4948 3.332C 11.7654 3.164 12.0921 3.03333 12.4748 2.94C 12.8668 2.84667 13.2774 2.8 13.7068 2.8C 14.0988 2.8 14.4114 2.86067 14.6448 2.982C 14.8874 3.094 15.0741 3.25267 15.2048 3.458C 15.3448 3.654 15.4334 3.88267 15.4708 4.144C 15.5174 4.396 15.5408 4.662 15.5408 4.942C 15.5408 5.502 15.5268 6.048 15.4988 6.58C 15.4801 7.112 15.4708 7.616 15.4708 8.092C 15.4708 8.44667 15.4801 8.778 15.4988 9.086C 15.5268 9.38467 15.5734 9.66933 15.6388 9.94L 14.8688 9.94L 14.6308 9.114L 14.5748 9.114C 14.4348 9.35667 14.2294 9.56667 13.9588 9.744C 13.6881 9.92133 13.3241 10.01 12.8668 10.01C 12.3628 10.01 11.9474 9.83733 11.6208 9.492C 11.3034 9.13733 11.1448 8.652 11.1448 8.036C 11.1448 7.63467 11.2101 7.29867 11.3408 7.028C 11.4808 6.75733 11.6721 6.538 11.9148 6.37C 12.1668 6.202 12.4608 6.08533 12.7968 6.02C 13.1421 5.94533 13.5248 5.908 13.9448 5.908C 14.0381 5.908 14.1314 5.908 14.2248 5.908C 14.3181 5.908 14.4161 5.91267 14.5188 5.922C 14.5468 5.63267 14.5608 5.376 14.5608 5.152C 14.5608 4.62 14.4814 4.24667 14.3228 4.032C 14.1641 3.81733 13.8748 3.71 13.4548 3.71C 13.1934 3.71 12.9088 3.752 12.6008 3.836C 12.2928 3.91067 12.0361 4.00867 11.8308 4.13L 11.4948 3.332ZM 14.5328 6.72C 14.4394 6.71067 14.3461 6.706 14.2528 6.706C 14.1594 6.69667 14.0661 6.692 13.9728 6.692C 13.7488 6.692 13.5294 6.71067 13.3148 6.748C 13.1001 6.78533 12.9088 6.85067 12.7408 6.944C 12.5728 7.03733 12.4374 7.16333 12.3348 7.322C 12.2414 7.48067 12.1948 7.68133 12.1948 7.924C 12.1948 8.29733 12.2834 8.58667 12.4608 8.792C 12.6474 8.99733 12.8854 9.1 13.1748 9.1C 13.5668 9.1 13.8701 9.00667 14.0848 8.82C 14.2994 8.63333 14.4488 8.428 14.5328 8.204L 14.5328 6.72Z"/>
<path id="path3_fill" d="M 20.7542 9.912L 20.7542 5.642C 20.7542 4.942 20.6702 4.438 20.5022 4.13C 20.3436 3.81267 20.0542 3.654 19.6342 3.654C 19.2609 3.654 18.9529 3.766 18.7102 3.99C 18.4676 4.214 18.2902 4.48933 18.1782 4.816L 18.1782 9.912L 17.1702 9.912L 17.1702 2.912L 17.8982 2.912L 18.0802 3.654L 18.1222 3.654C 18.2996 3.402 18.5376 3.18733 18.8362 3.01C 19.1442 2.83267 19.5082 2.744 19.9282 2.744C 20.2269 2.744 20.4882 2.786 20.7122 2.87C 20.9456 2.954 21.1369 3.09867 21.2862 3.304C 21.4449 3.5 21.5616 3.766 21.6362 4.102C 21.7202 4.438 21.7622 4.86267 21.7622 5.376L 21.7622 9.912L 20.7542 9.912Z"/>
<path id="path4_fill" d="M 27.9134 5.376L 27.4094 5.376L 27.4094 9.912L 26.3594 9.912L 26.3594 0.112L 27.4094 0.112L 27.4094 4.676L 27.8994 4.48L 30.4474 0.112L 31.6514 0.112L 29.0894 4.34L 28.5994 4.788L 29.1734 5.348L 32.0154 9.912L 30.6854 9.912L 27.9134 5.376Z"/>
<path id="path5_fill" d="M 33.3617 2.912L 34.3697 2.912L 34.3697 9.912L 33.3617 9.912L 33.3617 2.912ZM 33.1797 0.784C 33.1797 0.56 33.2403 0.378 33.3617 0.238C 33.4923 0.0980005 33.6603 0.0280004 33.8657 0.0280004C 34.071 0.0280004 34.239 0.0980005 34.3697 0.238C 34.5097 0.368667 34.5797 0.550667 34.5797 0.784C 34.5797 1.008 34.5097 1.18533 34.3697 1.316C 34.239 1.43733 34.071 1.498 33.8657 1.498C 33.6603 1.498 33.4923 1.43267 33.3617 1.302C 33.2403 1.17133 33.1797 0.998667 33.1797 0.784Z"/>
<path id="path6_fill" d="M 39.8128 9.912L 39.8128 5.642C 39.8128 4.942 39.7288 4.438 39.5608 4.13C 39.4022 3.81267 39.1128 3.654 38.6928 3.654C 38.3195 3.654 38.0115 3.766 37.7688 3.99C 37.5262 4.214 37.3488 4.48933 37.2368 4.816L 37.2368 9.912L 36.2288 9.912L 36.2288 2.912L 36.9568 2.912L 37.1388 3.654L 37.1808 3.654C 37.3582 3.402 37.5962 3.18733 37.8948 3.01C 38.2028 2.83267 38.5668 2.744 38.9868 2.744C 39.2855 2.744 39.5468 2.786 39.7708 2.87C 40.0042 2.954 40.1955 3.09867 40.3448 3.304C 40.5035 3.5 40.6202 3.766 40.6948 4.102C 40.7788 4.438 40.8208 4.86267 40.8208 5.376L 40.8208 9.912L 39.8128 9.912Z"/>
<path id="path7_fill" d="M 46.7912 10.234C 46.7912 11.1393 46.5905 11.8067 46.1892 12.236C 45.7878 12.6653 45.2045 12.88 44.4392 12.88C 43.9725 12.88 43.5898 12.838 43.2912 12.754C 42.9925 12.6793 42.7498 12.5907 42.5632 12.488L 42.8572 11.62C 43.0438 11.704 43.2492 11.7833 43.4732 11.858C 43.6972 11.9327 43.9725 11.97 44.2992 11.97C 44.8685 11.97 45.2558 11.8113 45.4612 11.494C 45.6758 11.1767 45.7832 10.6447 45.7832 9.898L 45.7832 9.38L 45.7412 9.38C 45.5918 9.59467 45.4005 9.76267 45.1672 9.884C 44.9338 10.0053 44.6352 10.066 44.2712 10.066C 43.5152 10.066 42.9598 9.77667 42.6052 9.198C 42.2505 8.61 42.0732 7.69067 42.0732 6.44C 42.0732 5.236 42.3018 4.326 42.7592 3.71C 43.2258 3.094 43.9118 2.786 44.8172 2.786C 45.2558 2.786 45.6338 2.828 45.9512 2.912C 46.2685 2.996 46.5485 3.094 46.7912 3.206L 46.7912 10.234ZM 45.7832 3.92C 45.5032 3.77067 45.1438 3.696 44.7052 3.696C 44.2292 3.696 43.8465 3.91533 43.5572 4.354C 43.2678 4.78333 43.1232 5.474 43.1232 6.426C 43.1232 6.818 43.1465 7.182 43.1932 7.518C 43.2398 7.84467 43.3192 8.134 43.4312 8.386C 43.5432 8.62867 43.6832 8.82 43.8512 8.96C 44.0285 9.09067 44.2432 9.156 44.4952 9.156C 44.8498 9.156 45.1298 9.06267 45.3352 8.876C 45.5405 8.68933 45.6898 8.40933 45.7832 8.036L 45.7832 3.92Z"/>
<path id="path8_fill" d="M 48.3121 8.764C 48.4988 8.876 48.7181 8.974 48.9701 9.058C 49.2315 9.13267 49.4975 9.17 49.7681 9.17C 50.0761 9.17 50.3375 9.09533 50.5521 8.946C 50.7668 8.78733 50.8741 8.53533 50.8741 8.19C 50.8741 7.90067 50.8088 7.66267 50.6781 7.476C 50.5475 7.28933 50.3795 7.12133 50.1741 6.972C 49.9781 6.82267 49.7635 6.68733 49.5301 6.566C 49.2968 6.43533 49.0775 6.28133 48.8721 6.104C 48.6761 5.92667 48.5128 5.71667 48.3821 5.474C 48.2515 5.23133 48.1861 4.92333 48.1861 4.55C 48.1861 3.95267 48.3448 3.50467 48.6621 3.206C 48.9888 2.898 49.4461 2.744 50.0341 2.744C 50.4168 2.744 50.7481 2.78133 51.0281 2.856C 51.3081 2.92133 51.5508 3.01467 51.7561 3.136L 51.4901 3.976C 51.3128 3.88267 51.1075 3.808 50.8741 3.752C 50.6408 3.68667 50.4028 3.654 50.1601 3.654C 49.8241 3.654 49.5768 3.724 49.4181 3.864C 49.2688 4.004 49.1941 4.22333 49.1941 4.522C 49.1941 4.75533 49.2595 4.956 49.3901 5.124C 49.5208 5.28267 49.6841 5.432 49.8801 5.572C 50.0855 5.70267 50.3048 5.838 50.5381 5.978C 50.7715 6.118 50.9861 6.286 51.1821 6.482C 51.3875 6.66867 51.5555 6.89733 51.6861 7.168C 51.8168 7.42933 51.8821 7.76067 51.8821 8.162C 51.8821 8.42333 51.8401 8.67067 51.7561 8.904C 51.6721 9.13733 51.5415 9.34267 51.3641 9.52C 51.1961 9.688 50.9815 9.82333 50.7201 9.926C 50.4681 10.0287 50.1695 10.08 49.8241 10.08C 49.4135 10.08 49.0588 10.038 48.7601 9.954C 48.4615 9.87933 48.2095 9.77667 48.0041 9.646L 48.3121 8.764Z"/>
<path id="path9_fill" d="M 52.4546 2.912L 53.3086 2.912L 53.3086 1.526L 54.3166 1.204L 54.3166 2.912L 55.8286 2.912L 55.8286 3.822L 54.3166 3.822L 54.3166 7.994C 54.3166 8.40467 54.3633 8.70333 54.4566 8.89C 54.5593 9.06733 54.7226 9.156 54.9466 9.156C 55.1333 9.156 55.2919 9.13733 55.4226 9.1C 55.5626 9.05333 55.7119 8.99733 55.8706 8.932L 56.0666 9.73C 55.8613 9.83267 55.6326 9.912 55.3806 9.968C 55.1379 10.0333 54.8813 10.066 54.6106 10.066C 54.1439 10.066 53.8079 9.91667 53.6026 9.618C 53.4066 9.31 53.3086 8.81533 53.3086 8.134L 53.3086 3.822L 52.4546 3.822L 52.4546 2.912Z"/>
<path id="path10_fill" d="M 56.5927 6.412C 56.5927 5.152 56.8074 4.228 57.2367 3.64C 57.6754 3.04267 58.296 2.744 59.0987 2.744C 59.9574 2.744 60.5874 3.04733 60.9887 3.654C 61.3994 4.26067 61.6047 5.18 61.6047 6.412C 61.6047 7.68133 61.3854 8.61 60.9467 9.198C 60.508 9.786 59.892 10.08 59.0987 10.08C 58.24 10.08 57.6054 9.77667 57.1947 9.17C 56.7934 8.56333 56.5927 7.644 56.5927 6.412ZM 57.6427 6.412C 57.6427 6.82267 57.666 7.196 57.7127 7.532C 57.7687 7.868 57.8527 8.15733 57.9647 8.4C 58.086 8.64267 58.24 8.834 58.4267 8.974C 58.6134 9.10467 58.8374 9.17 59.0987 9.17C 59.584 9.17 59.948 8.95533 60.1907 8.526C 60.4334 8.08733 60.5547 7.38267 60.5547 6.412C 60.5547 6.01067 60.5267 5.642 60.4707 5.306C 60.424 4.96067 60.34 4.66667 60.2187 4.424C 60.1067 4.18133 59.9574 3.99467 59.7707 3.864C 59.584 3.724 59.36 3.654 59.0987 3.654C 58.6227 3.654 58.2587 3.87333 58.0067 4.312C 57.764 4.75067 57.6427 5.45067 57.6427 6.412Z"/>
<path id="path11_fill" d="M 66.5277 9.912L 66.5277 5.642C 66.5277 4.942 66.4437 4.438 66.2757 4.13C 66.117 3.81267 65.8277 3.654 65.4077 3.654C 65.0343 3.654 64.7263 3.766 64.4837 3.99C 64.241 4.214 64.0637 4.48933 63.9517 4.816L 63.9517 9.912L 62.9437 9.912L 62.9437 2.912L 63.6717 2.912L 63.8537 3.654L 63.8957 3.654C 64.073 3.402 64.311 3.18733 64.6097 3.01C 64.9177 2.83267 65.2817 2.744 65.7017 2.744C 66.0003 2.744 66.2617 2.786 66.4857 2.87C 66.719 2.954 66.9103 3.09867 67.0597 3.304C 67.2183 3.5 67.335 3.766 67.4097 4.102C 67.4937 4.438 67.5357 4.86267 67.5357 5.376L 67.5357 9.912L 66.5277 9.912Z"/>
<path id="path12_fill" d="M 68.704 0.686C 68.704 0.471333 68.7647 0.303333 68.886 0.182C 69.0073 0.0606664 69.1613 0 69.348 0C 69.572 0 69.754 0.0793335 69.894 0.238C 70.034 0.387334 70.104 0.620667 70.104 0.938001C 70.104 1.23667 70.0667 1.498 69.992 1.722C 69.9173 1.946 69.824 2.13733 69.712 2.296C 69.6093 2.44533 69.4973 2.57133 69.376 2.674C 69.2547 2.76733 69.152 2.83733 69.068 2.884L 68.746 2.464C 68.9047 2.36133 69.04 2.21667 69.152 2.03C 69.2733 1.834 69.3293 1.61 69.32 1.358C 69.152 1.386 69.0073 1.33933 68.886 1.218C 68.7647 1.09667 68.704 0.919333 68.704 0.686Z"/>
<path id="path13_fill" d="M 70.5289 8.764C 70.7156 8.876 70.9349 8.974 71.1869 9.058C 71.4483 9.13267 71.7143 9.17 71.9849 9.17C 72.2929 9.17 72.5543 9.09533 72.7689 8.946C 72.9836 8.78733 73.0909 8.53533 73.0909 8.19C 73.0909 7.90067 73.0256 7.66267 72.8949 7.476C 72.7643 7.28933 72.5963 7.12133 72.3909 6.972C 72.1949 6.82267 71.9803 6.68733 71.7469 6.566C 71.5136 6.43533 71.2943 6.28133 71.0889 6.104C 70.8929 5.92667 70.7296 5.71667 70.5989 5.474C 70.4683 5.23133 70.4029 4.92333 70.4029 4.55C 70.4029 3.95267 70.5616 3.50467 70.8789 3.206C 71.2056 2.898 71.6629 2.744 72.2509 2.744C 72.6336 2.744 72.9649 2.78133 73.2449 2.856C 73.5249 2.92133 73.7676 3.01467 73.9729 3.136L 73.7069 3.976C 73.5296 3.88267 73.3243 3.808 73.0909 3.752C 72.8576 3.68667 72.6196 3.654 72.3769 3.654C 72.0409 3.654 71.7936 3.724 71.6349 3.864C 71.4856 4.004 71.4109 4.22333 71.4109 4.522C 71.4109 4.75533 71.4763 4.956 71.6069 5.124C 71.7376 5.28267 71.9009 5.432 72.0969 5.572C 72.3023 5.70267 72.5216 5.838 72.7549 5.978C 72.9883 6.118 73.2029 6.286 73.3989 6.482C 73.6043 6.66867 73.7723 6.89733 73.9029 7.168C 74.0336 7.42933 74.0989 7.76067 74.0989 8.162C 74.0989 8.42333 74.0569 8.67067 73.9729 8.904C 73.8889 9.13733 73.7583 9.34267 73.5809 9.52C 73.4129 9.688 73.1983 9.82333 72.9369 9.926C 72.6849 10.0287 72.3863 10.08 72.0409 10.08C 71.6303 10.08 71.2756 10.038 70.9769 9.954C 70.6783 9.87933 70.4263 9.77667 70.2209 9.646L 70.5289 8.764Z"/>
<path id="path14_fill" d="M 0 0.16L 5.6 0.16L 5.6 2.016L 2.016 2.016L 2.016 4.928L 5.312 4.928L 5.312 6.784L 2.016 6.784L 2.016 11.36L 0 11.36L 0 0.16Z"/>
<path id="path15_fill" d="M 13.2951 11.36L 7.34312 11.36L 7.34312 0.16L 9.35912 0.16L 9.35912 9.504L 13.2951 9.504L 13.2951 11.36Z"/>
<path id="path16_fill" d="M 14.7644 0.16L 20.3644 0.16L 20.3644 2.016L 16.7804 2.016L 16.7804 4.768L 20.0284 4.768L 20.0284 6.624L 16.7804 6.624L 16.7804 9.504L 20.4284 9.504L 20.4284 11.36L 14.7644 11.36L 14.7644 0.16Z"/>
<path id="path17_fill" d="M 22.2794 0.16L 27.8794 0.16L 27.8794 2.016L 24.2954 2.016L 24.2954 4.768L 27.5434 4.768L 27.5434 6.624L 24.2954 6.624L 24.2954 9.504L 27.9434 9.504L 27.9434 11.36L 22.2794 11.36L 22.2794 0.16Z"/>
<path id="path18_fill" d="M 36.5304 2.016L 33.8744 2.016L 33.8744 11.36L 31.8584 11.36L 31.8584 2.016L 29.2024 2.016L 29.2024 0.16L 36.5304 0.16L 36.5304 2.016Z"/>
<path id="path19_fill" d="M 47.8025 2.752C 47.8025 3.02933 47.7705 3.30667 47.7065 3.584C 47.6532 3.85067 47.5625 4.10667 47.4345 4.352C 47.3065 4.58667 47.1358 4.79467 46.9225 4.976C 46.7198 5.15733 46.4745 5.296 46.1865 5.392L 46.1865 5.488C 46.4425 5.552 46.6825 5.648 46.9065 5.776C 47.1412 5.904 47.3438 6.08 47.5145 6.304C 47.6852 6.51733 47.8185 6.784 47.9145 7.104C 48.0212 7.41333 48.0745 7.78133 48.0745 8.208C 48.0745 8.784 47.9732 9.28533 47.7705 9.712C 47.5785 10.128 47.3118 10.4693 46.9705 10.736C 46.6398 11.0027 46.2505 11.2 45.8025 11.328C 45.3545 11.456 44.8798 11.52 44.3785 11.52C 44.2292 11.52 44.0372 11.52 43.8025 11.52C 43.5678 11.52 43.3118 11.5093 43.0345 11.488C 42.7678 11.4773 42.4905 11.456 42.2025 11.424C 41.9145 11.392 41.6478 11.344 41.4025 11.28L 41.4025 0.24C 41.7545 0.176 42.1865 0.122666 42.6985 0.0799999C 43.2212 0.0266666 43.7385 0 44.2505 0C 44.7198 0 45.1678 0.0373325 45.5945 0.112C 46.0318 0.186666 46.4105 0.325333 46.7305 0.528C 47.0612 0.730666 47.3225 1.01333 47.5145 1.376C 47.7065 1.728 47.8025 2.18667 47.8025 2.752ZM 44.4265 9.776C 44.8745 9.776 45.2425 9.632 45.5305 9.344C 45.8185 9.056 45.9625 8.63467 45.9625 8.08C 45.9625 7.728 45.9145 7.45067 45.8185 7.248C 45.7225 7.03467 45.5945 6.87467 45.4345 6.768C 45.2745 6.65067 45.0878 6.576 44.8745 6.544C 44.6718 6.512 44.4585 6.496 44.2345 6.496L 43.4185 6.496L 43.4185 9.68C 43.5038 9.712 43.6478 9.73867 43.8505 9.76C 44.0638 9.77067 44.2558 9.776 44.4265 9.776ZM 43.8825 4.912C 43.9998 4.912 44.1332 4.90667 44.2825 4.896C 44.4425 4.87467 44.5705 4.85333 44.6665 4.832C 44.9758 4.71467 45.2372 4.52267 45.4505 4.256C 45.6745 3.98933 45.7865 3.64267 45.7865 3.216C 45.7865 2.93867 45.7492 2.704 45.6745 2.512C 45.5998 2.32 45.4985 2.17067 45.3705 2.064C 45.2425 1.94667 45.0878 1.86667 44.9065 1.824C 44.7358 1.77067 44.5492 1.744 44.3465 1.744C 43.9092 1.744 43.5998 1.76533 43.4185 1.808L 43.4185 4.912L 43.8825 4.912Z"/>
<path id="path20_fill" d="M 54.8302 0.16L 56.7342 0.16L 56.7342 7.424C 56.7342 8.87467 56.4356 9.92533 55.8382 10.576C 55.2516 11.2267 54.4356 11.552 53.3902 11.552C 52.1636 11.552 51.2622 11.2373 50.6862 10.608C 50.1209 9.968 49.8382 8.99733 49.8382 7.696L 49.8382 0.16L 51.8542 0.16L 51.8542 7.344C 51.8542 8.21867 51.9716 8.832 52.2062 9.184C 52.4409 9.52533 52.8302 9.696 53.3742 9.696C 53.8969 9.696 54.2702 9.51467 54.4942 9.152C 54.7182 8.77867 54.8302 8.176 54.8302 7.344L 54.8302 0.16Z"/>
<path id="path21_fill" d="M 58.9366 0.16L 60.9526 0.16L 60.9526 11.36L 58.9366 11.36L 58.9366 0.16Z"/>
<path id="path22_fill" d="M 69.1651 11.36L 63.2131 11.36L 63.2131 0.16L 65.2291 0.16L 65.2291 9.504L 69.1651 9.504L 69.1651 11.36Z"/>
<path id="path23_fill" d="M 70.6344 0.16C 70.8264 0.127999 71.0397 0.106667 71.2744 0.0959997C 71.5197 0.074666 71.7651 0.0586662 72.0104 0.0479994C 72.2664 0.0266666 72.5117 0.0159998 72.7464 0.0159998C 72.9811 0.00533295 73.1891 0 73.3704 0C 74.2557 0 74.9917 0.138666 75.5784 0.415999C 76.1757 0.682667 76.6504 1.06667 77.0024 1.568C 77.365 2.05867 77.6211 2.65067 77.7704 3.344C 77.9197 4.03733 77.9944 4.81067 77.9944 5.664C 77.9944 6.44267 77.9197 7.18933 77.7704 7.904C 77.6317 8.608 77.3811 9.232 77.0184 9.776C 76.6557 10.3093 76.1651 10.736 75.5464 11.056C 74.9277 11.376 74.149 11.536 73.2104 11.536C 73.0717 11.536 72.885 11.5307 72.6504 11.52C 72.4157 11.5093 72.1704 11.4933 71.9144 11.472C 71.6584 11.4613 71.413 11.4453 71.1784 11.424C 70.9437 11.4133 70.7624 11.3973 70.6344 11.376L 70.6344 0.16ZM 73.5784 1.856C 73.4077 1.856 73.2317 1.86133 73.0504 1.872C 72.8797 1.872 72.7464 1.88267 72.6504 1.904L 72.6504 9.616C 72.6824 9.62667 72.7357 9.63733 72.8104 9.648C 72.8957 9.648 72.9811 9.65333 73.0664 9.664C 73.1624 9.664 73.2477 9.66933 73.3224 9.68C 73.4077 9.68 73.4664 9.68 73.4984 9.68C 73.9784 9.68 74.373 9.568 74.6824 9.344C 74.9917 9.12 75.2317 8.82133 75.4024 8.448C 75.5837 8.07467 75.7064 7.648 75.7704 7.168C 75.8451 6.67733 75.8824 6.16533 75.8824 5.632C 75.8824 5.14133 75.8504 4.66667 75.7864 4.208C 75.7331 3.74933 75.6211 3.34933 75.4504 3.008C 75.2904 2.656 75.0557 2.37867 74.7464 2.176C 74.4477 1.96267 74.0584 1.856 73.5784 1.856Z"/>
<path id="path24_fill" d="M 79.8369 0.16L 85.4369 0.16L 85.4369 2.016L 81.8529 2.016L 81.8529 4.768L 85.1009 4.768L 85.1009 6.624L 81.8529 6.624L 81.8529 9.504L 85.5009 9.504L 85.5009 11.36L 79.8369 11.36L 79.8369 0.16Z"/>
<path id="path25_fill" d="M 87.3519 0.271999C 87.7892 0.176 88.2585 0.106667 88.7599 0.0640001C 89.2612 0.0213327 89.6932 0 90.0559 0C 90.5146 0 90.9625 0.0479994 91.3999 0.144C 91.8372 0.229333 92.2212 0.394667 92.5519 0.639999C 92.8932 0.874666 93.1652 1.2 93.3679 1.616C 93.5812 2.02133 93.6879 2.53867 93.6879 3.168C 93.6879 4.07467 93.5172 4.816 93.1759 5.392C 92.8452 5.95733 92.3865 6.34667 91.7999 6.56L 92.4399 7.072L 94.5039 11.36L 92.1839 11.36L 90.2319 6.944L 89.3679 6.736L 89.3679 11.36L 87.3519 11.36L 87.3519 0.271999ZM 89.3679 5.36L 90.0559 5.36C 90.5572 5.36 90.9359 5.21067 91.1919 4.912C 91.4479 4.60267 91.5759 4.128 91.5759 3.488C 91.5759 3.008 91.4692 2.61867 91.2559 2.32C 91.0425 2.01067 90.7065 1.856 90.2479 1.856C 90.0772 1.856 89.9119 1.86133 89.7519 1.872C 89.5919 1.88267 89.4639 1.904 89.3679 1.936L 89.3679 5.36Z"/>
<path id="path26_fill" d="M 10.592 17.664L 5.312 17.664L 4 22.72L 0 22.72L 6.496 0.16L 9.664 0.16L 16.192 22.72L 11.968 22.72L 10.592 17.664ZM 6.176 14.336L 9.888 14.336L 8.608 9.12L 8.096 5.6L 7.968 5.6L 7.424 9.152L 6.176 14.336Z"/>
<path id="path27_fill" d="M 20.1273 0.543999C 21.0019 0.351999 21.9406 0.213333 22.9433 0.128C 23.9459 0.0426655 24.8099 0 25.5352 0C 26.4526 0 27.3486 0.0959988 28.2233 0.288C 29.0979 0.458666 29.8659 0.789333 30.5273 1.28C 31.2099 1.74933 31.7539 2.4 32.1593 3.232C 32.5859 4.04267 32.7993 5.07733 32.7993 6.336C 32.7993 8.14933 32.4579 9.632 31.7752 10.784C 31.1139 11.9147 30.1966 12.6933 29.0233 13.12L 30.3032 14.144L 34.4313 22.72L 29.7913 22.72L 25.8872 13.888L 24.1593 13.472L 24.1593 22.72L 20.1273 22.72L 20.1273 0.543999ZM 24.1593 10.72L 25.5352 10.72C 26.5379 10.72 27.2953 10.4213 27.8073 9.824C 28.3193 9.20533 28.5752 8.256 28.5752 6.976C 28.5752 6.016 28.3619 5.23733 27.9352 4.64C 27.5086 4.02133 26.8366 3.712 25.9193 3.712C 25.5779 3.712 25.2473 3.72267 24.9272 3.744C 24.6073 3.76533 24.3513 3.808 24.1593 3.872L 24.1593 10.72Z"/>
<path id="path28_fill" d="M 53.117 11.168L 53.565 6.88L 53.405 6.88L 52.221 10.72L 48.573 18.592L 47.229 18.592L 43.357 10.688L 42.173 6.816L 41.981 6.816L 42.589 11.136L 42.589 22.72L 38.781 22.72L 38.781 0.32L 42.653 0.32L 47.325 10.016L 48.093 12.8L 48.221 12.8L 48.957 9.952L 53.341 0.32L 57.149 0.32L 57.149 22.72L 53.117 22.72L 53.117 11.168Z"/>
<path id="path29_fill" d="M 71.647 17.664L 66.367 17.664L 65.055 22.72L 61.055 22.72L 67.551 0.16L 70.719 0.16L 77.247 22.72L 73.023 22.72L 71.647 17.664ZM 67.231 14.336L 70.943 14.336L 69.663 9.12L 69.151 5.6L 69.023 5.6L 68.479 9.152L 67.231 14.336Z"/>
<path id="path30_fill" d="M 81.1822 0.32C 81.5662 0.255999 81.9929 0.213333 82.4622 0.191999C 82.9529 0.149332 83.4436 0.117332 83.9342 0.0959988C 84.4462 0.0533333 84.9369 0.0319996 85.4062 0.0319996C 85.8756 0.0106659 86.2916 0 86.6542 0C 88.4249 0 89.8969 0.277332 91.0702 0.831999C 92.2649 1.36533 93.2142 2.13333 93.9182 3.136C 94.6436 4.11733 95.1556 5.30133 95.4542 6.688C 95.7529 8.07467 95.9022 9.62133 95.9022 11.328C 95.9022 12.8853 95.7529 14.3787 95.4542 15.808C 95.1769 17.216 94.6756 18.464 93.9502 19.552C 93.2249 20.6187 92.2436 21.472 91.0062 22.112C 89.7689 22.752 88.2116 23.072 86.3342 23.072C 86.0569 23.072 85.6836 23.0613 85.2142 23.04C 84.7449 23.0187 84.2542 22.9867 83.7422 22.944C 83.2302 22.9227 82.7396 22.8907 82.2702 22.848C 81.8009 22.8267 81.4382 22.7947 81.1822 22.752L 81.1822 0.32ZM 87.0702 3.712C 86.7289 3.712 86.3769 3.72267 86.0142 3.744C 85.6729 3.744 85.4062 3.76533 85.2142 3.808L 85.2142 19.232C 85.2782 19.2533 85.3849 19.2747 85.5342 19.296C 85.7049 19.296 85.8756 19.3067 86.0462 19.328C 86.2382 19.328 86.4089 19.3387 86.5582 19.36C 86.7289 19.36 86.8462 19.36 86.9102 19.36C 87.8702 19.36 88.6596 19.136 89.2782 18.688C 89.8969 18.24 90.3769 17.6427 90.7182 16.896C 91.0809 16.1493 91.3262 15.296 91.4542 14.336C 91.6036 13.3547 91.6782 12.3307 91.6782 11.264C 91.6782 10.2827 91.6142 9.33333 91.4862 8.416C 91.3796 7.49866 91.1556 6.69867 90.8142 6.016C 90.4942 5.312 90.0249 4.75733 89.4062 4.352C 88.8089 3.92533 88.0302 3.712 87.0702 3.712Z"/>
<path id="path31_fill" d="M 109.923 17.664L 104.643 17.664L 103.331 22.72L 99.3312 22.72L 105.827 0.16L 108.995 0.16L 115.523 22.72L 111.299 22.72L 109.923 17.664ZM 105.507 14.336L 109.219 14.336L 107.939 9.12L 107.427 5.6L 107.299 5.6L 106.755 9.152L 105.507 14.336Z"/>
<path id="path32_fill" fill-rule="evenodd" d="M 120 2L 0 2L 0 0L 120 0L 120 2Z"/>
</defs>
</svg>
